# xmcd
# 
# Track frame offsets:
#     150
#     24427
#     41725
#     53595
#     70430
#     87620
#     102920
#     122002
#     140920
#     158887
# 
# Disc length: 2371
# 
# Revision: 3
# Processed by: cddbd v1.5.2PL0 Copyright (c) Steve Scherf et al.
# Submitted via: fre:ac v1.0.17
# 
DISCID=8d09410a
DTITLE=Alberta Hunter - Amtrak Blues
DYEAR=1980
DGENRE=Jazz
TTITLE0=The Darktown Strutters Ball
TTITLE1=Nobody Knows You When You're Down and Out
TTITLE2=I'm Having A Good Time
TTITLE3=Always
TTITLE4=My Handy Man Ain't Handy No More
TTITLE5=Amtrak Blues
TTITLE6=Old Fashioned Blues
TTITLE7=Sweet Georgia Brown
TTITLE8=A Good Man Is Hard To FInd
TTITLE9=I've Got A Mind To Ramble
EXTD=YEAR: 1980
EXTT0=
EXTT1=
EXTT2=
EXTT3=
EXTT4=
EXTT5=
EXTT6=
EXTT7=
EXTT8=
EXTT9=
PLAYORDER=
